<svg width="324" height="324" viewBox="0 0 324 324" fill="none" xmlns="http://www.w3.org/2000/svg">
<path d="M36.7112 249.763C36.7112 249.763 69.826 291.682 126.401 293.403C182.977 295.125 233.584 259.836 275.327 232.345C317.07 204.854 330.768 158.865 309.927 120.95C289.086 83.0348 251.259 95.9702 205.83 69.3298C160.401 42.6895 152.353 28.6469 99.6867 31.0436C47.0203 33.4403 3.42759 89.7051 5.32469 152.741C7.22178 215.778 36.7112 249.763 36.7112 249.763Z" fill="#92A9E3"/>
<path opacity="0.7" d="M36.7112 249.763C36.7112 249.763 69.826 291.682 126.401 293.403C182.977 295.125 233.584 259.836 275.327 232.345C317.07 204.854 330.768 158.865 309.927 120.95C289.086 83.0348 251.259 95.9702 205.83 69.3298C160.401 42.6895 152.353 28.6469 99.6867 31.0436C47.0203 33.4403 3.42759 89.7051 5.32469 152.741C7.22178 215.778 36.7112 249.763 36.7112 249.763Z" fill="white"/>
<path d="M245.657 173.453L192.229 204.298V171.833L245.657 140.98V173.453Z" fill="#2A9AD2"/>
<path d="M138.802 173.453L192.229 204.298V171.833L138.802 140.98V173.453Z" fill="#AFD9EE"/>
<path d="M245.657 140.981L192.229 110.136L138.802 140.981L192.229 171.833L245.657 140.981Z" fill="#2A9AD2"/>
<path d="M201.625 147.023C204.225 148.522 205.521 150.49 205.521 152.458V157.723C205.521 159.691 204.225 161.66 201.625 163.158C198.728 164.698 195.485 165.473 192.205 165.41V144.763C195.487 144.699 198.73 145.477 201.625 147.023Z" fill="#2A9AD2"/>
<path d="M182.809 147.023C180.209 148.522 178.913 150.49 178.913 152.458V157.723C178.913 159.691 180.209 161.66 182.809 163.158C185.706 164.698 188.949 165.473 192.229 165.41V144.763C188.948 144.699 185.704 145.477 182.809 147.023Z" fill="#AFD9EE"/>
<path d="M182.809 147.023C177.609 150.02 177.609 154.888 182.809 157.893C188.009 160.898 196.441 160.898 201.649 157.893C206.858 154.888 206.85 150.02 201.649 147.023C196.449 144.026 188.009 144.018 182.809 147.023Z" fill="#6BC0E8"/>
<path opacity="0.07" d="M182.809 147.023C177.609 150.02 177.609 154.888 182.809 157.893C188.009 160.898 196.441 160.898 201.649 157.893C206.858 154.888 206.85 150.02 201.649 147.023C196.449 144.026 188.009 144.018 182.809 147.023Z" fill="white"/>
<path d="M201.625 116.932C204.225 118.43 205.521 120.398 205.521 122.367V127.624C205.521 129.592 204.225 131.56 201.625 133.059C198.729 134.602 195.486 135.377 192.205 135.311V114.68C195.485 114.617 198.728 115.392 201.625 116.932Z" fill="#2A9AD2"/>
<path d="M182.809 116.932C180.209 118.43 178.913 120.398 178.913 122.367V127.624C178.913 129.592 180.209 131.56 182.809 133.059C185.705 134.602 188.948 135.377 192.229 135.311V114.68C188.949 114.617 185.706 115.392 182.809 116.932Z" fill="#AFD9EE"/>
<path d="M182.809 116.932C177.609 119.937 177.609 124.805 182.809 127.81C188.009 130.815 196.441 130.807 201.649 127.81C206.858 124.813 206.85 119.937 201.649 116.932C196.449 113.927 188.009 113.927 182.809 116.932Z" fill="#6BC0E8"/>
<path opacity="0.07" d="M182.809 116.932C177.609 119.937 177.609 124.805 182.809 127.81C188.009 130.815 196.441 130.807 201.649 127.81C206.858 124.813 206.85 119.937 201.649 116.932C196.449 113.927 188.009 113.927 182.809 116.932Z" fill="white"/>
<path d="M227.691 131.981C230.291 133.48 231.595 135.448 231.595 137.417V142.673C231.595 144.642 230.291 146.61 227.691 148.109C224.796 149.648 221.557 150.423 218.279 150.36V129.73C221.557 129.663 224.798 130.438 227.691 131.981Z" fill="#2A9AD2"/>
<path d="M208.858 131.981C206.258 133.48 204.962 135.448 204.962 137.417V142.673C204.962 144.642 206.258 146.61 208.858 148.109C211.756 149.648 214.998 150.423 218.279 150.36V129.73C214.998 129.663 211.754 130.438 208.858 131.981Z" fill="#AFD9EE"/>
<path d="M208.858 131.981C203.658 134.978 203.658 139.847 208.858 142.852C214.059 145.857 222.491 145.857 227.691 142.852C232.891 139.847 232.899 134.978 227.691 131.981C222.483 128.984 214.059 128.976 208.858 131.981Z" fill="#6BC0E8"/>
<path opacity="0.07" d="M208.858 131.981C203.658 134.978 203.658 139.847 208.858 142.852C214.059 145.857 222.491 145.857 227.691 142.852C232.891 139.847 232.899 134.978 227.691 131.981C222.483 128.984 214.059 128.976 208.858 131.981Z" fill="white"/>
<path d="M175.6 131.965C178.2 133.472 179.496 135.44 179.496 137.408V142.665C179.496 144.626 178.2 146.594 175.6 148.1C172.702 149.64 169.46 150.415 166.18 150.352V129.713C169.46 129.65 172.702 130.426 175.6 131.965Z" fill="#2A9AD2"/>
<path d="M156.759 131.965C154.159 133.472 152.863 135.44 152.863 137.408V142.665C152.863 144.626 154.159 146.594 156.759 148.1C159.657 149.64 162.899 150.415 166.18 150.352V129.713C162.899 129.65 159.657 130.426 156.759 131.965Z" fill="#AFD9EE"/>
<path d="M156.759 131.965C151.559 134.97 151.559 139.838 156.759 142.844C161.959 145.849 170.4 145.849 175.6 142.844C180.8 139.838 180.8 134.97 175.6 131.965C170.4 128.96 161.935 128.968 156.759 131.965Z" fill="#6BC0E8"/>
<path opacity="0.07" d="M156.759 131.965C151.559 134.97 151.559 139.838 156.759 142.844C161.959 145.849 170.4 145.849 175.6 142.844C180.8 139.838 180.8 134.97 175.6 131.965C170.4 128.96 161.935 128.968 156.759 131.965Z" fill="white"/>
<path d="M297.732 252.542L244.304 283.387V250.914L297.732 220.069V252.542Z" fill="#4C59E6"/>
<path opacity="0.1" d="M297.732 252.542L244.304 283.387V250.914L297.732 220.069V252.542Z" fill="#2F2F2F"/>
<path d="M190.885 252.542L244.304 283.387V250.914L190.877 220.069L190.885 252.542Z" fill="#4C59E6"/>
<path opacity="0.2" d="M190.885 252.542L244.304 283.387V250.914L190.877 220.069L190.885 252.542Z" fill="#2F2F2F"/>
<path d="M297.732 220.069L244.304 189.224L190.877 220.069L244.304 250.914L297.732 220.069Z" fill="#4C59E6"/>
<path d="M257.621 201.463C257.621 199.495 256.325 197.527 253.724 196.028C248.524 193.023 240.092 193.023 234.892 196.028C232.292 197.527 230.988 199.495 230.988 201.463V206.72C230.988 208.688 232.292 210.649 234.892 212.155C240.092 215.16 248.524 215.16 253.724 212.155C256.325 210.649 257.629 208.688 257.621 206.72V201.463Z" fill="#4C59E6"/>
<path opacity="0.1" d="M253.724 196.02C256.325 197.519 257.629 199.487 257.621 201.455V206.712C257.621 208.68 256.325 210.641 253.724 212.147C250.829 213.695 247.587 214.479 244.304 214.423V193.768C247.585 193.701 250.828 194.477 253.724 196.02Z" fill="#2F2F2F"/>
<path opacity="0.2" d="M234.892 196.02C232.292 197.519 230.988 199.487 230.988 201.455V206.712C230.988 208.68 232.292 210.641 234.892 212.147C237.785 213.694 241.024 214.478 244.304 214.423V193.768C241.026 193.702 237.785 194.478 234.892 196.02Z" fill="#2F2F2F"/>
<path d="M234.892 196.02C229.692 199.017 229.692 203.885 234.892 206.89C240.092 209.895 248.524 209.895 253.724 206.89C258.925 203.885 258.925 199.017 253.724 196.02C248.524 193.023 240.092 193.015 234.892 196.02Z" fill="#4C59E6"/>
<path opacity="0.3" d="M234.892 196.02C229.692 199.017 229.692 203.885 234.892 206.89C240.092 209.895 248.524 209.895 253.724 206.89C258.925 203.885 258.925 199.017 253.724 196.02C248.524 193.023 240.092 193.015 234.892 196.02Z" fill="white"/>
<path d="M257.621 231.539C257.621 229.578 256.325 227.61 253.724 226.103C248.524 223.098 240.092 223.098 234.892 226.103C232.292 227.61 230.988 229.57 230.988 231.539V236.795C230.988 238.764 232.292 240.732 234.892 242.231C240.092 245.236 248.524 245.236 253.724 242.231C256.325 240.732 257.629 238.764 257.621 236.795V231.539Z" fill="#4C59E6"/>
<path opacity="0.1" d="M253.724 226.103C256.325 227.61 257.629 229.57 257.621 231.539V236.795C257.621 238.764 256.325 240.732 253.724 242.231C250.83 243.778 247.586 244.553 244.304 244.482V223.852C247.585 223.789 250.827 224.564 253.724 226.103Z" fill="#2F2F2F"/>
<path opacity="0.2" d="M234.892 226.103C232.292 227.61 230.988 229.57 230.988 231.539V236.795C230.988 238.764 232.292 240.732 234.892 242.231C237.784 243.777 241.025 244.552 244.304 244.482V223.852C241.026 223.79 237.787 224.565 234.892 226.103Z" fill="#2F2F2F"/>
<path d="M234.892 226.103C229.692 229.109 229.692 233.977 234.892 236.982C240.092 239.987 248.524 239.979 253.724 236.982C258.925 233.985 258.925 229.109 253.724 226.103C248.524 223.098 240.092 223.098 234.892 226.103Z" fill="#4C59E6"/>
<path opacity="0.3" d="M234.892 226.103C229.692 229.109 229.692 233.977 234.892 236.982C240.092 239.987 248.524 239.979 253.724 236.982C258.925 233.985 258.925 229.109 253.724 226.103C248.524 223.098 240.092 223.098 234.892 226.103Z" fill="white"/>
<path d="M231.595 216.489C231.595 214.52 230.291 212.552 227.691 211.054C222.491 208.048 214.059 208.048 208.858 211.054C206.258 212.552 204.954 214.52 204.954 216.489V221.713C204.954 223.682 206.258 225.65 208.858 227.148C214.059 230.153 222.491 230.153 227.691 227.148C230.291 225.65 231.595 223.682 231.595 221.713C231.595 220.288 231.595 217.947 231.595 216.489Z" fill="#4C59E6"/>
<path opacity="0.1" d="M227.675 211.054C230.275 212.552 231.579 214.52 231.579 216.489C231.579 217.947 231.579 220.288 231.579 221.746C231.579 223.714 230.275 225.682 227.675 227.181C224.779 228.724 221.535 229.499 218.255 229.432V208.802C221.535 208.739 224.777 209.514 227.675 211.054Z" fill="#2F2F2F"/>
<path opacity="0.2" d="M208.842 211.054C206.242 212.552 204.938 214.52 204.938 216.489V221.713C204.938 223.682 206.242 225.65 208.842 227.148C211.736 228.691 214.976 229.466 218.255 229.4V208.802C214.977 208.74 211.737 209.515 208.842 211.054Z" fill="#2F2F2F"/>
<path d="M208.842 211.054C203.642 214.059 203.642 218.927 208.842 221.924C214.042 224.921 222.475 224.929 227.675 221.924C232.875 218.919 232.875 214.059 227.675 211.054C222.475 208.048 214.042 208.048 208.842 211.054Z" fill="#4C59E6"/>
<path opacity="0.3" d="M208.842 211.054C203.642 214.059 203.642 218.927 208.842 221.924C214.042 224.921 222.475 224.929 227.675 221.924C232.875 218.919 232.875 214.059 227.675 211.054C222.475 208.048 214.042 208.048 208.842 211.054Z" fill="white"/>
<path d="M283.67 216.497C283.67 214.529 282.374 212.56 279.774 211.062C274.574 208.057 266.142 208.057 260.941 211.062C258.333 212.56 257.037 214.529 257.037 216.497V221.754C257.037 223.722 258.333 225.69 260.933 227.189C266.142 230.194 274.574 230.194 279.774 227.189C282.374 225.69 283.67 223.722 283.67 221.754V216.497Z" fill="#4C59E6"/>
<path opacity="0.1" d="M279.774 211.062C282.374 212.56 283.67 214.529 283.67 216.497V221.754C283.67 223.722 282.374 225.69 279.774 227.189C276.878 228.732 273.635 229.508 270.354 229.441V208.81C273.634 208.747 276.877 209.522 279.774 211.062Z" fill="#2F2F2F"/>
<path opacity="0.2" d="M260.941 211.062C258.333 212.56 257.037 214.529 257.037 216.497V221.754C257.037 223.722 258.333 225.69 260.933 227.189C263.83 228.731 267.073 229.506 270.354 229.441V208.81C267.076 208.747 263.836 209.522 260.941 211.062Z" fill="#2F2F2F"/>
<path d="M260.942 211.062C255.733 214.067 255.733 218.935 260.942 221.94C266.15 224.945 274.582 224.937 279.782 221.94C284.982 218.943 284.982 214.067 279.782 211.062C274.582 208.057 266.142 208.057 260.942 211.062Z" fill="#4C59E6"/>
<path opacity="0.3" d="M260.942 211.062C255.733 214.067 255.733 218.935 260.942 221.94C266.15 224.945 274.582 224.937 279.782 221.94C284.982 218.943 284.982 214.067 279.782 211.062C274.582 208.057 266.142 208.057 260.942 211.062Z" fill="white"/>
<path d="M245.657 138.631L192.229 169.476V137.003L245.657 106.159V138.631Z" fill="#4C59E6"/>
<path opacity="0.3" d="M245.657 138.631L192.229 169.476V137.003L245.657 106.159V138.631Z" fill="#2F2F2F"/>
<path d="M138.802 138.631L192.229 169.476V137.003L138.802 106.159V138.631Z" fill="#4C59E6"/>
<path opacity="0.4" d="M138.802 138.631L192.229 169.476V137.003L138.802 106.159V138.631Z" fill="#2F2F2F"/>
<path d="M245.657 106.159L192.229 75.3138L138.802 106.159L192.229 137.003L245.657 106.159Z" fill="#4C59E6"/>
<path opacity="0.55" d="M245.657 106.159L192.229 75.3138L138.802 106.159L192.229 137.003L245.657 106.159Z" fill="#2F2F2F"/>
<path d="M205.546 87.5448C205.546 85.5765 204.25 83.6082 201.649 82.1097C196.449 79.1046 188.009 79.1046 182.809 82.1097C180.209 83.6082 178.913 85.5765 178.913 87.5448V92.8017C178.913 94.77 180.209 96.7383 182.809 98.2368C188.009 101.242 196.441 101.242 201.649 98.2368C204.25 96.7383 205.546 94.77 205.546 92.8017V87.5448Z" fill="#4C59E6"/>
<path opacity="0.3" d="M201.625 82.1097C204.225 83.6082 205.521 85.5765 205.521 87.5448V92.8017C205.521 94.77 204.225 96.7383 201.625 98.2368C198.728 99.7765 195.485 100.552 192.205 100.489V79.8579C195.486 79.791 198.729 80.5662 201.625 82.1097Z" fill="#2F2F2F"/>
<path opacity="0.4" d="M182.809 82.1097C180.209 83.6082 178.913 85.5765 178.913 87.5448V92.8017C178.913 94.77 180.209 96.7383 182.809 98.2368C185.706 99.7765 188.949 100.552 192.229 100.489V79.8579C188.948 79.791 185.705 80.5662 182.809 82.1097Z" fill="#2F2F2F"/>
<path d="M182.809 82.1097C177.609 85.1067 177.609 89.9748 182.809 92.9799C188.009 95.985 196.441 95.985 201.649 92.9799C206.858 89.9748 206.85 85.1067 201.649 82.1097C196.449 79.1127 188.009 79.1046 182.809 82.1097Z" fill="#4C59E6"/>
<path opacity="0.3" d="M182.809 82.1097C177.609 85.1067 177.609 89.9748 182.809 92.9799C188.009 95.985 196.441 95.985 201.649 92.9799C206.858 89.9748 206.85 85.1067 201.649 82.1097C196.449 79.1127 188.009 79.1046 182.809 82.1097Z" fill="white"/>
<path d="M205.546 117.636C205.546 115.668 204.25 113.7 201.649 112.193C196.449 109.196 188.009 109.196 182.809 112.193C180.209 113.7 178.913 115.668 178.913 117.628V122.893C178.913 124.861 180.209 126.83 182.809 128.336C188.009 131.333 196.441 131.333 201.649 128.336C204.25 126.83 205.546 124.861 205.546 122.893V117.636Z" fill="#4C59E6"/>
<path opacity="0.3" d="M201.625 112.193C204.225 113.7 205.521 115.668 205.521 117.628V122.893C205.521 124.861 204.225 126.83 201.625 128.336C198.728 129.876 195.485 130.651 192.205 130.588V109.933C195.486 109.873 198.729 110.651 201.625 112.193Z" fill="#2F2F2F"/>
<path opacity="0.4" d="M182.809 112.193C180.209 113.7 178.913 115.668 178.913 117.628V122.893C178.913 124.861 180.209 126.83 182.809 128.336C185.706 129.876 188.949 130.651 192.229 130.588V109.933C188.948 109.873 185.706 110.651 182.809 112.193Z" fill="#2F2F2F"/>
<path d="M182.809 112.193C177.609 115.198 177.609 120.066 182.809 123.071C188.009 126.076 196.441 126.076 201.649 123.071C206.858 120.066 206.85 115.198 201.649 112.193C196.449 109.188 188.009 109.196 182.809 112.193Z" fill="#4C59E6"/>
<path opacity="0.3" d="M182.809 112.193C177.609 115.198 177.609 120.066 182.809 123.071C188.009 126.076 196.441 126.076 201.649 123.071C206.858 120.066 206.85 115.198 201.649 112.193C196.449 109.188 188.009 109.196 182.809 112.193Z" fill="white"/>
<path d="M179.496 102.578C179.496 100.61 178.2 98.6418 175.6 97.1433C170.4 94.1382 161.968 94.1382 156.759 97.1433C154.159 98.6418 152.863 100.61 152.863 102.578V107.835C152.863 109.804 154.159 111.772 156.759 113.27C161.959 116.275 170.4 116.275 175.6 113.27C178.2 111.772 179.496 109.804 179.496 107.835V102.578Z" fill="#4C59E6"/>
<path opacity="0.3" d="M175.6 97.1433C178.2 98.6418 179.496 100.61 179.496 102.578V107.835C179.496 109.804 178.2 111.772 175.6 113.27C172.704 114.814 169.461 115.589 166.18 115.522V94.8915C169.46 94.8285 172.702 95.6036 175.6 97.1433Z" fill="#2F2F2F"/>
<path opacity="0.4" d="M156.759 97.1433C154.159 98.6418 152.863 100.61 152.863 102.578V107.835C152.863 109.804 154.159 111.772 156.759 113.27C159.655 114.814 162.899 115.589 166.18 115.522V94.8915C162.899 94.8285 159.657 95.6036 156.759 97.1433Z" fill="#2F2F2F"/>
<path d="M156.759 97.1433C151.559 100.148 151.559 105.016 156.759 108.022C161.959 111.027 170.4 111.019 175.6 108.022C180.8 105.025 180.8 100.148 175.6 97.1433C170.4 94.1382 161.935 94.1382 156.759 97.1433Z" fill="#4C59E6"/>
<path opacity="0.3" d="M156.759 97.1433C151.559 100.148 151.559 105.016 156.759 108.022C161.959 111.027 170.4 111.019 175.6 108.022C180.8 105.025 180.8 100.148 175.6 97.1433C170.4 94.1382 161.935 94.1382 156.759 97.1433Z" fill="white"/>
<path d="M231.595 102.586C231.595 100.626 230.299 98.658 227.691 97.1514C222.491 94.1463 214.059 94.1463 208.858 97.1514C206.258 98.658 204.962 100.618 204.962 102.586V107.843C204.962 109.812 206.258 111.78 208.858 113.278C214.059 116.284 222.491 116.284 227.691 113.278C230.299 111.78 231.595 109.812 231.595 107.843V102.586Z" fill="#4C59E6"/>
<path opacity="0.3" d="M227.691 97.1514C230.291 98.658 231.595 100.618 231.595 102.586V107.843C231.595 109.812 230.291 111.78 227.691 113.278C224.798 114.822 221.557 115.597 218.279 115.53V94.8996C221.557 94.8366 224.796 95.6117 227.691 97.1514Z" fill="#2F2F2F"/>
<path opacity="0.4" d="M208.858 97.1514C206.258 98.658 204.962 100.618 204.962 102.586V107.843C204.962 109.812 206.258 111.78 208.858 113.278C211.754 114.822 214.998 115.597 218.279 115.53V94.8996C214.998 94.8366 211.756 95.6117 208.858 97.1514Z" fill="#2F2F2F"/>
<path d="M208.858 97.1514C203.658 100.156 203.658 105.025 208.858 108.03C214.059 111.035 222.491 111.027 227.691 108.03C232.891 105.033 232.899 100.156 227.691 97.1514C222.483 94.1463 214.059 94.1463 208.858 97.1514Z" fill="#4C59E6"/>
<path opacity="0.3" d="M208.858 97.1514C203.658 100.156 203.658 105.025 208.858 108.03C214.059 111.035 222.491 111.027 227.691 108.03C232.891 105.033 232.899 100.156 227.691 97.1514C222.483 94.1463 214.059 94.1463 208.858 97.1514Z" fill="white"/>
<path d="M189.418 205.918L135.991 236.771V204.298L189.418 173.453V205.918Z" fill="#4C59E6"/>
<path opacity="0.3" d="M189.418 205.918L135.991 236.771V204.298L189.418 173.453V205.918Z" fill="#2F2F2F"/>
<path d="M82.5633 205.918L135.991 236.771V204.298L82.5633 173.453V205.918Z" fill="#4C59E6"/>
<path opacity="0.4" d="M82.5633 205.918L135.991 236.771V204.298L82.5633 173.453V205.918Z" fill="#2F2F2F"/>
<path d="M189.418 173.453L135.991 142.609L82.5633 173.453L135.991 204.298L189.418 173.453Z" fill="#4C59E6"/>
<path opacity="0.55" d="M189.418 173.453L135.991 142.609L82.5633 173.453L135.991 204.298L189.418 173.453Z" fill="#343B88"/>
<path d="M149.307 154.84C149.307 152.871 148.011 150.903 145.411 149.404C140.211 146.399 131.779 146.399 126.571 149.404C123.97 150.903 122.674 152.871 122.674 154.84V160.096C122.674 162.065 123.97 164.033 126.571 165.532C131.771 168.537 140.211 168.537 145.411 165.532C148.011 164.033 149.307 162.065 149.307 160.096V154.84Z" fill="#4C59E6"/>
<path opacity="0.3" d="M145.411 149.404C148.011 150.903 149.307 152.871 149.307 154.84V160.096C149.307 162.065 148.011 164.033 145.411 165.532C142.521 167.067 139.288 167.842 136.015 167.783V147.193C139.284 147.118 142.519 147.879 145.411 149.404Z" fill="#2F2F2F"/>
<path opacity="0.4" d="M126.571 149.404C123.97 150.903 122.674 152.871 122.674 154.84V160.096C122.674 162.065 123.97 164.033 126.571 165.532C129.475 167.075 132.726 167.851 136.015 167.783V147.193C132.73 147.11 129.478 147.871 126.571 149.404Z" fill="#2F2F2F"/>
<path d="M126.571 149.404C121.37 152.401 121.37 157.27 126.571 160.275C131.771 163.28 140.211 163.28 145.411 160.275C150.611 157.27 150.611 152.401 145.411 149.404C140.211 146.407 131.779 146.383 126.571 149.404Z" fill="#4C59E6"/>
<path opacity="0.3" d="M126.571 149.404C121.37 152.401 121.37 157.27 126.571 160.275C131.771 163.28 140.211 163.28 145.411 160.275C150.611 157.27 150.611 152.401 145.411 149.404C140.211 146.407 131.779 146.383 126.571 149.404Z" fill="white"/>
<path d="M149.307 184.923C149.307 182.963 148.011 180.994 145.411 179.488C140.211 176.483 131.779 176.483 126.571 179.488C123.97 180.994 122.674 182.955 122.674 184.923V190.18C122.674 192.148 123.97 194.116 126.571 195.615C131.771 198.62 140.211 198.62 145.411 195.615C148.011 194.116 149.307 192.148 149.307 190.18V184.923Z" fill="#4C59E6"/>
<path opacity="0.3" d="M145.411 179.488C148.011 180.994 149.307 182.955 149.307 184.923V190.18C149.307 192.148 148.011 194.116 145.411 195.615C142.523 197.157 139.289 197.935 136.015 197.875V177.236C139.288 177.177 142.521 177.952 145.411 179.488Z" fill="#2F2F2F"/>
<path opacity="0.4" d="M126.571 179.488C123.97 180.995 122.674 182.955 122.674 184.923V190.18C122.674 192.148 123.97 194.117 126.571 195.615C129.473 197.165 132.725 197.943 136.015 197.875V177.236C132.726 177.169 129.475 177.944 126.571 179.488Z" fill="#2F2F2F"/>
<path d="M126.571 179.488C121.37 182.493 121.37 187.361 126.571 190.366C131.771 193.371 140.211 193.363 145.411 190.366C150.611 187.369 150.611 182.493 145.411 179.488C140.211 176.483 131.779 176.483 126.571 179.488Z" fill="#4C59E6"/>
<path opacity="0.3" d="M126.571 179.488C121.37 182.493 121.37 187.361 126.571 190.366C131.771 193.371 140.211 193.363 145.411 190.366C150.611 187.369 150.611 182.493 145.411 179.488C140.211 176.483 131.779 176.483 126.571 179.488Z" fill="white"/>
<path d="M123.258 169.873C123.258 167.905 121.962 165.937 119.362 164.438C114.161 161.433 105.729 161.433 100.521 164.438C97.9209 165.937 96.6249 167.905 96.6249 169.873V175.13C96.6249 177.098 97.9209 179.067 100.521 180.565C105.721 183.57 114.161 183.57 119.362 180.565C121.962 179.067 123.258 177.098 123.258 175.13V169.873Z" fill="#4C59E6"/>
<path opacity="0.3" d="M119.362 164.438C121.962 165.937 123.258 167.905 123.258 169.873V175.13C123.258 177.098 121.962 179.067 119.362 180.565C116.467 182.114 113.224 182.895 109.941 182.833V162.186C113.222 162.123 116.464 162.898 119.362 164.438Z" fill="#2F2F2F"/>
<path opacity="0.4" d="M100.521 164.438C97.9209 165.937 96.6249 167.905 96.6249 169.873V175.13C96.6249 177.098 97.9209 179.067 100.521 180.565C103.415 182.114 106.659 182.895 109.941 182.833V162.186C106.661 162.124 103.419 162.899 100.521 164.438Z" fill="#2F2F2F"/>
<path d="M100.521 164.438C95.3208 167.443 95.3208 172.311 100.521 175.308C105.721 178.305 114.161 178.313 119.362 175.308C124.562 172.303 124.562 167.443 119.362 164.438C114.161 161.433 105.729 161.433 100.521 164.438Z" fill="#4C59E6"/>
<path opacity="0.3" d="M100.521 164.438C95.3208 167.443 95.3208 172.311 100.521 175.308C105.721 178.305 114.161 178.313 119.362 175.308C124.562 172.303 124.562 167.443 119.362 164.438C114.161 161.433 105.729 161.433 100.521 164.438Z" fill="white"/>
<path d="M175.357 169.873C175.357 167.905 174.061 165.945 171.453 164.438C166.253 161.433 157.82 161.433 152.62 164.438C150.02 165.937 148.724 167.905 148.724 169.873V175.13C148.724 177.098 150.02 179.067 152.62 180.565C157.82 183.57 166.253 183.57 171.453 180.565C174.061 179.067 175.357 177.098 175.357 175.13V169.873Z" fill="#4C59E6"/>
<path opacity="0.3" d="M171.453 164.446C174.053 165.945 175.357 167.913 175.357 169.881V175.138C175.357 177.106 174.061 179.075 171.461 180.573C168.565 182.119 165.322 182.897 162.041 182.833V162.194C165.318 162.131 168.558 162.906 171.453 164.446Z" fill="#2F2F2F"/>
<path opacity="0.4" d="M152.62 164.446C150.02 165.945 148.724 167.913 148.724 169.881V175.138C148.724 177.106 150.02 179.075 152.62 180.573C155.515 182.12 158.759 182.898 162.041 182.833V162.194C158.76 162.131 155.518 162.906 152.62 164.446Z" fill="#2F2F2F"/>
<path d="M152.62 164.446C147.42 167.451 147.42 172.319 152.62 175.324C157.82 178.33 166.252 178.321 171.453 175.324C176.653 172.327 176.661 167.451 171.453 164.446C166.244 161.441 157.82 161.441 152.62 164.446Z" fill="#4C59E6"/>
<path opacity="0.3" d="M152.62 164.446C147.42 167.451 147.42 172.319 152.62 175.324C157.82 178.33 166.252 178.321 171.453 175.324C176.653 172.327 176.661 167.451 171.453 164.446C166.244 161.441 157.82 161.441 152.62 164.446Z" fill="white"/>
<path d="M189.418 171.096L135.991 201.941V169.476L189.418 138.632V171.096Z" fill="#4C59E6"/>
<path opacity="0.1" d="M189.418 171.096L135.991 201.941V169.476L189.418 138.632V171.096Z" fill="#2F2F2F"/>
<path d="M82.5633 171.096L135.991 201.941V169.476L82.5633 138.632V171.096Z" fill="#4C59E6"/>
<path opacity="0.2" d="M82.5633 171.096L135.991 201.941V169.476L82.5633 138.632V171.096Z" fill="#2F2F2F"/>
<path d="M189.418 138.631L135.991 107.779L82.5633 138.631L135.991 169.476L189.418 138.631Z" fill="#4C59E6"/>
<path d="M149.307 120.01C149.307 118.041 148.011 116.081 145.411 114.575C140.211 111.569 131.779 111.569 126.571 114.575C123.97 116.081 122.674 118.041 122.674 120.01V125.267C122.674 127.235 123.97 129.203 126.571 130.702C131.771 133.707 140.211 133.707 145.411 130.702C148.011 129.203 149.307 127.235 149.307 125.267V120.01Z" fill="#4C59E6"/>
<path opacity="0.1" d="M145.411 114.574C148.011 116.081 149.307 118.041 149.307 120.01V125.266C149.307 127.235 148.011 129.203 145.411 130.702C142.522 132.241 139.288 133.016 136.015 132.953V112.363C139.284 112.292 142.517 113.053 145.411 114.574Z" fill="#2F2F2F"/>
<path opacity="0.2" d="M126.571 114.574C123.97 116.081 122.674 118.041 122.674 120.01V125.266C122.674 127.235 123.97 129.203 126.571 130.702C129.474 132.249 132.726 133.024 136.015 132.953V112.363C132.73 112.284 129.479 113.045 126.571 114.574Z" fill="#2F2F2F"/>
<path d="M126.571 114.574C121.37 117.58 121.37 122.448 126.571 125.453C131.771 128.458 140.211 128.45 145.411 125.453C150.611 122.456 150.611 117.58 145.411 114.574C140.211 111.569 131.779 111.553 126.571 114.574Z" fill="#4C59E6"/>
<path opacity="0.3" d="M126.571 114.574C121.37 117.58 121.37 122.448 126.571 125.453C131.771 128.458 140.211 128.45 145.411 125.453C150.611 122.456 150.611 117.58 145.411 114.574C140.211 111.569 131.779 111.553 126.571 114.574Z" fill="white"/>
<path d="M149.307 150.101C149.307 148.133 148.011 146.164 145.411 144.666C140.211 141.661 131.779 141.661 126.571 144.666C123.97 146.164 122.674 148.133 122.674 150.101V155.358C122.674 157.326 123.97 159.295 126.571 160.793C131.771 163.798 140.211 163.798 145.411 160.793C148.011 159.295 149.307 157.326 149.307 155.358V150.101Z" fill="#4C59E6"/>
<path opacity="0.1" d="M145.411 144.666C148.011 146.165 149.307 148.133 149.307 150.101V155.358C149.307 157.326 148.011 159.295 145.411 160.793C142.521 162.329 139.288 163.104 136.015 163.045V142.414C139.288 142.351 142.522 143.127 145.411 144.666Z" fill="#2F2F2F"/>
<path opacity="0.2" d="M126.571 144.666C123.97 146.165 122.674 148.133 122.674 150.101V155.358C122.674 157.326 123.97 159.295 126.571 160.793C129.475 162.337 132.726 163.112 136.015 163.045V142.414C132.726 142.343 129.474 143.119 126.571 144.666Z" fill="#2F2F2F"/>
<path d="M126.571 144.666C121.37 147.671 121.37 152.539 126.571 155.536C131.771 158.533 140.211 158.541 145.411 155.536C150.611 152.531 150.611 147.671 145.411 144.666C140.211 141.661 131.779 141.661 126.571 144.666Z" fill="#4C59E6"/>
<path opacity="0.3" d="M126.571 144.666C121.37 147.671 121.37 152.539 126.571 155.536C131.771 158.533 140.211 158.541 145.411 155.536C150.611 152.531 150.611 147.671 145.411 144.666C140.211 141.661 131.779 141.661 126.571 144.666Z" fill="white"/>
<path d="M123.258 135.043C123.258 133.075 121.962 131.107 119.362 129.608C114.161 126.603 105.729 126.603 100.521 129.608C97.9209 131.107 96.6249 133.075 96.6249 135.043V140.3C96.6249 142.268 97.9209 144.229 100.521 145.735C105.721 148.732 114.161 148.74 119.362 145.735C121.962 144.229 123.258 142.26 123.258 140.3V135.043Z" fill="#4C59E6"/>
<path opacity="0.1" d="M119.362 129.616C121.962 131.115 123.258 133.083 123.258 135.051V140.308C123.258 142.276 121.962 144.237 119.362 145.743C116.465 147.286 113.223 148.064 109.941 148.003V127.356C113.223 127.292 116.466 128.07 119.362 129.616Z" fill="#2F2F2F"/>
<path opacity="0.2" d="M100.521 129.616C97.9209 131.115 96.6249 133.083 96.6249 135.051V140.308C96.6249 142.277 97.9209 144.237 100.521 145.743C103.418 147.286 106.66 148.064 109.941 148.003V127.356C106.66 127.293 103.417 128.071 100.521 129.616Z" fill="#2F2F2F"/>
<path d="M100.521 129.616C95.3208 132.613 95.3208 137.481 100.521 140.486C105.721 143.492 114.161 143.492 119.362 140.486C124.562 137.481 124.562 132.613 119.362 129.616C114.161 126.619 105.729 126.611 100.521 129.616Z" fill="#4C59E6"/>
<path opacity="0.3" d="M100.521 129.616C95.3208 132.613 95.3208 137.481 100.521 140.486C105.721 143.492 114.161 143.492 119.362 140.486C124.562 137.481 124.562 132.613 119.362 129.616C114.161 126.619 105.729 126.611 100.521 129.616Z" fill="white"/>
<path d="M175.357 135.043C175.357 133.075 174.061 131.107 171.453 129.608C166.253 126.603 157.82 126.603 152.62 129.608C150.02 131.107 148.724 133.075 148.724 135.043V140.3C148.724 142.268 150.02 144.237 152.62 145.735C157.82 148.74 166.253 148.74 171.453 145.735C174.061 144.237 175.357 142.268 175.357 140.3V135.043Z" fill="#4C59E6"/>
<path opacity="0.1" d="M171.453 129.624C174.053 131.123 175.357 133.091 175.357 135.059V140.316C175.357 142.285 174.061 144.253 171.461 145.751C168.563 147.29 165.321 148.065 162.041 148.003V127.372C165.319 127.306 168.56 128.081 171.453 129.624Z" fill="#2F2F2F"/>
<path opacity="0.2" d="M152.62 129.624C150.02 131.123 148.724 133.091 148.724 135.059V140.316C148.724 142.285 150.02 144.253 152.62 145.751C155.518 147.291 158.76 148.066 162.041 148.003V127.372C158.76 127.306 155.516 128.081 152.62 129.624Z" fill="#2F2F2F"/>
<path d="M152.62 129.624C147.42 132.621 147.42 137.489 152.62 140.494C157.82 143.5 166.252 143.5 171.453 140.494C176.653 137.489 176.661 132.621 171.453 129.624C166.244 126.627 157.82 126.619 152.62 129.624Z" fill="#4C59E6"/>
<path opacity="0.3" d="M152.62 129.624C147.42 132.621 147.42 137.489 152.62 140.494C157.82 143.5 166.252 143.5 171.453 140.494C176.653 137.489 176.661 132.621 171.453 129.624C166.244 126.627 157.82 126.619 152.62 129.624Z" fill="white"/>
<path d="M133.18 238.391L79.7526 269.236V236.771L133.18 205.918V238.391Z" fill="#2A9AD2"/>
<path d="M26.325 238.391L79.7526 269.236V236.771L26.325 205.918V238.391Z" fill="#AFD9EE"/>
<path d="M133.18 205.918L79.7526 175.073L26.325 205.918L79.7526 236.771L133.18 205.918Z" fill="#6BC0E8"/>
<path d="M89.1729 211.993C91.773 213.492 93.069 215.46 93.069 217.428V222.685C93.069 224.654 91.773 226.622 89.1729 228.12C86.2755 229.66 83.0331 230.435 79.7526 230.372V209.709C83.0364 209.652 86.2799 210.439 89.1729 211.993Z" fill="#2A9AD2"/>
<path d="M70.3323 211.993C67.7322 213.492 66.4362 215.46 66.4362 217.428V222.685C66.4362 224.654 67.7322 226.622 70.3323 228.12C73.2297 229.66 76.4721 230.435 79.7526 230.372V209.709C76.4688 209.652 73.2253 210.439 70.3323 211.993Z" fill="#AFD9EE"/>
<path d="M70.3323 211.993C65.1321 214.99 65.1321 219.866 70.3323 222.863C75.5325 225.86 83.9727 225.869 89.1729 222.863C94.3731 219.858 94.3731 214.998 89.1729 211.993C83.9727 208.988 75.5406 208.956 70.3323 211.993Z" fill="#6BC0E8"/>
<path opacity="0.07" d="M70.3323 211.993C65.1321 214.99 65.1321 219.866 70.3323 222.863C75.5325 225.86 83.9727 225.869 89.1729 222.863C94.3731 219.858 94.3731 214.998 89.1729 211.993C83.9727 208.988 75.5406 208.956 70.3323 211.993Z" fill="white"/>
<path d="M89.1729 181.869C91.773 183.368 93.069 185.336 93.069 187.304V192.553C93.069 194.522 91.773 196.49 89.1729 197.988C86.2769 199.532 83.0336 200.307 79.7526 200.24V179.593C83.0353 179.538 86.2777 180.321 89.1729 181.869Z" fill="#2A9AD2"/>
<path d="M70.3323 181.869C67.7322 183.368 66.4362 185.336 66.4362 187.304V192.553C66.4362 194.522 67.7322 196.49 70.3323 197.988C73.2283 199.532 76.4717 200.307 79.7526 200.24V179.593C76.47 179.538 73.2275 180.321 70.3323 181.869Z" fill="#AFD9EE"/>
<path d="M70.3323 181.869C65.1321 184.874 65.1321 189.742 70.3323 192.748C75.5325 195.753 83.9727 195.745 89.1729 192.748C94.3731 189.751 94.3731 184.874 89.1729 181.869C83.9727 178.864 75.5406 178.864 70.3323 181.869Z" fill="#6BC0E8"/>
<path opacity="0.07" d="M70.3323 181.869C65.1321 184.874 65.1321 189.742 70.3323 192.748C75.5325 195.753 83.9727 195.745 89.1729 192.748C94.3731 189.751 94.3731 184.874 89.1729 181.869C83.9727 178.864 75.5406 178.864 70.3323 181.869Z" fill="white"/>
<path d="M115.214 196.919C117.814 198.418 119.119 200.386 119.119 202.354V207.611C119.119 209.579 117.823 211.548 115.222 213.046C112.325 214.585 109.083 215.36 105.802 215.298V194.667C109.081 194.6 112.321 195.376 115.214 196.919Z" fill="#2A9AD2"/>
<path d="M96.382 196.919C93.7819 198.418 92.4858 200.386 92.4858 202.354V207.611C92.4858 209.579 93.7819 211.548 96.382 213.046C99.2794 214.586 102.522 215.361 105.802 215.298V194.667C102.521 194.6 99.278 195.376 96.382 196.919Z" fill="#AFD9EE"/>
<path d="M96.3819 196.919C91.1817 199.916 91.1817 204.784 96.3819 207.789C101.582 210.794 110.014 210.794 115.214 207.789C120.415 204.784 120.423 199.916 115.214 196.919C110.006 193.922 101.582 193.914 96.3819 196.919Z" fill="#6BC0E8"/>
<path opacity="0.07" d="M96.3819 196.919C91.1817 199.916 91.1817 204.784 96.3819 207.789C101.582 210.794 110.014 210.794 115.214 207.789C120.415 204.784 120.423 199.916 115.214 196.919C110.006 193.922 101.582 193.914 96.3819 196.919Z" fill="white"/>
<path d="M63.1152 196.903C65.7153 198.41 67.0113 200.378 67.0113 202.346V207.603C67.0113 209.563 65.7153 211.532 63.1152 213.038C60.2178 214.578 56.9754 215.353 53.6949 215.29V194.651C56.9754 194.588 60.2178 195.363 63.1152 196.903Z" fill="#2A9AD2"/>
<path d="M44.2827 196.903C41.6826 198.41 40.3866 200.378 40.3866 202.346V207.603C40.3866 209.563 41.6826 211.532 44.2827 213.038C47.1801 214.578 50.4225 215.353 53.703 215.29V194.651C50.4226 194.589 47.1805 195.364 44.2827 196.903Z" fill="#AFD9EE"/>
<path d="M44.2827 196.903C39.0825 199.908 39.0825 204.776 44.2827 207.781C49.4829 210.786 57.9231 210.786 63.1233 207.781C68.3235 204.776 68.3235 199.908 63.1233 196.911C57.9231 193.914 49.491 193.906 44.2827 196.903Z" fill="#6BC0E8"/>
<path opacity="0.07" d="M44.2827 196.903C39.0825 199.908 39.0825 204.776 44.2827 207.781C49.4829 210.786 57.9231 210.786 63.1233 207.781C68.3235 204.776 68.3235 199.908 63.1233 196.911C57.9231 193.914 49.491 193.906 44.2827 196.903Z" fill="white"/>
<path d="M245.657 103.81L192.229 134.662V102.19L245.657 71.3448V103.81Z" fill="#2A9AD2"/>
<path d="M138.802 103.81L192.229 134.662V102.19L138.802 71.3448V103.81Z" fill="#AFD9EE"/>
<path d="M245.657 71.3448L192.229 40.5L138.802 71.3448L192.229 102.19L245.657 71.3448Z" fill="#6BC0E8"/>
<path d="M201.625 77.3793C204.225 78.8859 205.521 80.8542 205.521 82.8144V88.0632C205.521 90.0315 204.225 91.9998 201.625 93.5064C198.728 95.0461 195.485 95.8211 192.205 95.7582V75.1032C195.488 75.0477 198.73 75.8311 201.625 77.3793Z" fill="#2A9AD2"/>
<path d="M182.809 77.3793C180.209 78.8859 178.913 80.8542 178.913 82.8144V88.0632C178.913 90.0315 180.209 91.9998 182.809 93.5064C185.706 95.0461 188.949 95.8211 192.229 95.7582V75.1032C188.947 75.0477 185.704 75.8311 182.809 77.3793Z" fill="#AFD9EE"/>
<path d="M182.809 77.3793C177.609 80.3844 177.609 85.2525 182.809 88.2576C188.009 91.2627 196.441 91.2546 201.649 88.2576C206.858 85.2606 206.85 80.3844 201.649 77.3793C196.449 74.3742 188.009 74.3823 182.809 77.3793Z" fill="#6BC0E8"/>
<path opacity="0.07" d="M182.809 77.3793C177.609 80.3844 177.609 85.2525 182.809 88.2576C188.009 91.2627 196.441 91.2546 201.649 88.2576C206.858 85.2606 206.85 80.3844 201.649 77.3793C196.449 74.3742 188.009 74.3823 182.809 77.3793Z" fill="white"/>
<path d="M201.625 47.2959C204.225 48.7944 205.521 50.7627 205.521 52.731V57.9879C205.521 59.9562 204.225 61.9245 201.625 63.423C198.728 64.9627 195.485 65.7377 192.205 65.6748V45.0441C195.486 44.9772 198.729 45.7525 201.625 47.2959Z" fill="#2A9AD2"/>
<path d="M182.809 47.2959C180.209 48.7944 178.913 50.7627 178.913 52.731V57.9879C178.913 59.9562 180.209 61.9245 182.809 63.423C185.706 64.9627 188.949 65.7377 192.229 65.6748V45.0441C188.948 44.9772 185.705 45.7525 182.809 47.2959Z" fill="#AFD9EE"/>
<path d="M182.809 47.2959C177.609 50.2929 177.609 55.161 182.809 58.1661C188.009 61.1712 196.441 61.1712 201.649 58.1661C206.858 55.161 206.85 50.2929 201.649 47.2959C196.449 44.2989 188.009 44.3232 182.809 47.2959Z" fill="#6BC0E8"/>
<path opacity="0.07" d="M182.809 47.2959C177.609 50.2929 177.609 55.161 182.809 58.1661C188.009 61.1712 196.441 61.1712 201.649 58.1661C206.858 55.161 206.85 50.2929 201.649 47.2959C196.449 44.2989 188.009 44.3232 182.809 47.2959Z" fill="white"/>
<path d="M227.691 62.3376C230.291 63.8442 231.595 65.8044 231.595 67.7727V73.0296C231.595 74.9979 230.291 76.9662 227.691 78.4647C224.798 80.0081 221.557 80.7835 218.279 80.7165V60.0858C221.557 60.0228 224.796 60.7979 227.691 62.3376Z" fill="#2A9AD2"/>
<path d="M208.858 62.3376C206.258 63.8442 204.962 65.8044 204.962 67.7727V73.0296C204.962 74.9979 206.258 76.9662 208.858 78.4647C211.754 80.0082 214.998 80.7834 218.279 80.7165V60.0858C214.998 60.0229 211.756 60.7979 208.858 62.3376Z" fill="#AFD9EE"/>
<path d="M208.858 62.3376C203.658 65.3427 203.658 70.2108 208.858 73.2159C214.059 76.221 222.491 76.2129 227.691 73.2159C232.891 70.2189 232.899 65.3427 227.691 62.3376C222.483 59.3325 214.059 59.3325 208.858 62.3376Z" fill="#6BC0E8"/>
<path opacity="0.07" d="M208.858 62.3376C203.658 65.3427 203.658 70.2108 208.858 73.2159C214.059 76.221 222.491 76.2129 227.691 73.2159C232.891 70.2189 232.899 65.3427 227.691 62.3376C222.483 59.3325 214.059 59.3325 208.858 62.3376Z" fill="white"/>
<path d="M175.6 62.3295C178.2 63.828 179.496 65.7963 179.496 67.7646V73.0215C179.496 74.9898 178.2 76.9581 175.6 78.4566C172.704 80 169.461 80.7753 166.18 80.7084V60.0777C169.46 60.0148 172.702 60.7898 175.6 62.3295Z" fill="#2A9AD2"/>
<path d="M156.759 62.3295C154.159 63.828 152.863 65.7963 152.863 67.7646V73.0215C152.863 74.9898 154.159 76.9581 156.759 78.4566C159.655 80 162.899 80.7753 166.18 80.7084V60.0777C162.899 60.0148 159.657 60.7898 156.759 62.3295Z" fill="#AFD9EE"/>
<path d="M156.759 62.3295C151.559 65.3346 151.559 70.2027 156.759 73.1997C161.959 76.1967 170.4 76.2048 175.6 73.1997C180.8 70.1946 180.8 65.3265 175.6 62.3214C170.4 59.3163 161.935 59.3244 156.759 62.3295Z" fill="#6BC0E8"/>
<path opacity="0.07" d="M156.759 62.3295C151.559 65.3346 151.559 70.2027 156.759 73.1997C161.959 76.1967 170.4 76.2048 175.6 73.1997C180.8 70.1946 180.8 65.3265 175.6 62.3214C170.4 59.3163 161.935 59.3244 156.759 62.3295Z" fill="white"/>
</svg>
